<?xml version="1.0" encoding="UTF-8"?>
<svg id="_레이어_1" data-name="레이어 1" xmlns="http://www.w3.org/2000/svg" viewBox="0 0 235.19 223.33">
  <defs>
    <style>
      .cls-1 {
        fill: #221e1f;
      }

      .cls-2 {
        fill: #f5f2e6;
      }

      .cls-3 {
        fill: none;
        stroke: #221e1f;
        stroke-miterlimit: 10;
        stroke-width: 5px;
      }
    </style>
  </defs>
  <g>
    <path class="cls-2" d="M173.72,188.41H62.15c-7.83,0-14.17-6.35-14.17-14.17V16.69c0-7.83,6.35-14.17,14.17-14.17h135.67c1.6,0,6.58.21,11.13,3.83,6.15,4.88,6.65,12.09,6.72,13.25v25.19c-9.26,0-18.52.01-27.78.02v-25.7c.73-4.17,1-5.73,1.5-7.03.23-.6.66-1.53,1.25-2.53,2.82-4.77,7.18-7.02,7.18-7.02,0,0-4.37,2.25-7.18,7.02-.6,1.01-1.03,1.93-1.25,2.53-.49,1.3-.77,2.85-1.5,7.03v155.15c-.75,2.11-2.56,6.31-6.73,9.9-2.77,2.38-5.56,3.62-7.44,4.27Z"/>
    <path class="cls-1" d="M173.72,185.91H63.08c-3.04,0-5.95-.64-8.35-2.65-2.87-2.4-4.25-5.79-4.25-9.48s0-7.33,0-10.99c0-7.47,0-14.95,0-22.42,0-9.71,0-19.43,0-29.14s0-21.02,0-31.54V28.13c0-3.66,0-7.33,0-10.99s1.39-7.08,4.25-9.48c2.4-2.01,5.31-2.65,8.35-2.65h43.68c10.38,0,20.75,0,31.13,0,8.44,0,16.88,0,25.32,0h33.87c.59,0,1.18,0,1.77.03.77.05,1.08.09,1.67.2,3.83.72,7.4,2.74,9.67,5.97.95,1.34,1.65,2.75,2.14,4.22.2.61.37,1.23.51,1.85.06.25.11.5.16.76.03.14.16.99.1.6-.06-.43.03.26.03.34.01.13.02.26.03.39.05.9.01,1.8.01,2.7v22.72l2.5-2.5c-9.26,0-18.52.01-27.78.02l2.5,2.5v-22.24c0-1.23-.09-2.5.07-3.71.12-.91.32-1.82.49-2.72.55-2.88,1.28-4.96,3.21-7.29,1.49-1.8,2.94-3.12,4.92-4.15,2.85-1.49.33-5.8-2.52-4.32-3.54,1.85-6.63,5.16-8.49,8.65-.92,1.71-1.48,3.45-1.85,5.35-.23,1.2-.45,2.4-.65,3.6-.31,1.84-.17,3.76-.17,5.62v146.67c0,1.43.25,3-.29,4.32.19-.46-.15.34-.15.34-.12.26-.24.52-.37.77-.29.58-.6,1.14-.93,1.69-.8,1.32-1.73,2.52-2.81,3.63-2.18,2.24-4.85,3.96-7.79,5-1.27.45-2.12,1.71-1.75,3.08.34,1.23,1.8,2.2,3.08,1.75,5.7-2.02,10.56-5.86,13.67-11.07,1.18-1.98,2.33-4.18,2.33-6.51V21.09c0-2.52.43-5.13,1.14-7.56,1.03-3.5,4.27-7.14,7.55-8.85l-2.52-4.32c-4.32,2.25-7.88,6.54-9.58,11.04-.81,2.14-1.09,4.55-1.46,6.79-.33,2.05-.13,4.26-.13,6.34v20.26c0,1.35,1.15,2.5,2.5,2.5,9.26,0,18.52-.01,27.78-.02,1.35,0,2.5-1.14,2.5-2.5v-15.8c0-3.84.33-7.79-.25-11.6-1.16-7.64-6.56-14.12-13.97-16.43-3.6-1.13-7.32-.93-11.05-.93h-124.17c-5.73,0-11.47-.45-16.4,3.21-4.37,3.25-6.84,8.26-6.86,13.69,0,1.12,0,2.24,0,3.36v16.86c0,8.81,0,17.62,0,26.43v31.26c0,10.45,0,20.9,0,31.36v26.71c0,5.78,0,11.55,0,17.33,0,1.22,0,2.44,0,3.66,0,4.74,1.82,9.36,5.35,12.59,3.32,3.03,7.5,4.44,11.95,4.44h110.94c3.22,0,3.22-5,0-5Z"/>
  </g>
  <rect class="cls-2" x="22.26" y="202.29" width="51.62" height="20.98"/>
  <g>
    <rect class="cls-2" x="9.57" y="177.01" width="75.73" height="22.8" rx="5.67" ry="5.67"/>
    <path class="cls-1" d="M79.63,197.31H17.75c-.93,0-1.94.1-2.87,0-3.68-.41-2.81-5.22-2.81-7.78v-5.46c0-1.14-.11-2.31.6-3.27,1.06-1.43,2.66-1.28,4.22-1.28h50.7c3.97,0,7.96-.13,11.92,0,1.2.04,2.24.5,2.86,1.57s.43,2.36.43,3.53c0,3.15.13,6.32,0,9.47-.07,1.8-1.33,3.18-3.17,3.23-3.21.1-3.22,5.1,0,5,3.43-.1,6.45-2.13,7.66-5.37.57-1.53.51-3.13.51-4.73,0-3.17.08-6.36,0-9.53-.12-4.76-3.91-8.15-8.57-8.17-1.67,0-3.34,0-5.01,0H28.81c-4.46,0-8.92-.04-13.38,0-4.7.04-8.33,3.67-8.37,8.38-.03,3.42,0,6.84,0,10.26,0,2.01.26,3.97,1.47,5.66,1.59,2.21,4.02,3.44,6.73,3.51,1.22.03,2.45,0,3.68,0h60.68c3.22,0,3.22-5,0-5Z"/>
  </g>
  <path class="cls-1" d="M19.76,199.73v21.18c0,3.22,5,3.22,5,0v-21.18c0-3.22-5-3.22-5,0h0Z"/>
  <g>
    <path class="cls-2" d="M22.47,93.49c-7.71,13.52-15.16,23.76-19.96,29.98,3.63,6.57,7.45,14.6,10.73,24.02,3.85,11.07,5.96,21.17,7.13,29.52,18.66-.14,37.32-.27,55.99-.41,1.13-6.66,2.7-13.91,4.89-21.58,3.54-12.42,7.9-23.18,12.21-32.17-6.24-7.52-15.49-19.69-24.31-36.1-12.19-22.69-14.52-36.68-21.09-36.78-7.15-.11-10.11,16.4-25.58,43.51Z"/>
    <path class="cls-1" d="M20.31,92.23c-5.97,10.43-12.63,20.46-19.96,29.98-.54.7-.39,1.81,0,2.52,7.23,13.12,12.5,27.24,15.64,41.89.78,3.66,1.43,7.35,1.95,11.05.15,1.06,1.42,1.84,2.41,1.84,18.66-.14,37.32-.27,55.99-.41,1.01,0,2.23-.76,2.41-1.84,3.14-18.39,8.78-36.32,16.85-53.15.53-1.1.37-2.11-.39-3.03-6.93-8.36-13.2-17.26-18.79-26.57-6.44-10.73-11.6-22.02-16.67-33.43-1.43-3.21-2.82-6.57-4.91-9.41-1.66-2.26-3.84-4.16-6.79-4.21-5.73-.09-8.82,6.63-10.94,10.95-2.31,4.69-4.4,9.48-6.64,14.2-3.15,6.65-6.52,13.2-10.16,19.6-1.59,2.8,2.72,5.32,4.32,2.52,5.63-9.9,10.39-20.18,15.21-30.49,1.41-3.01,2.81-6.08,4.65-8.86.16-.24.32-.47.49-.71.09-.13.19-.26.29-.39-.39.52-.16.2-.05.08.37-.41.73-.81,1.13-1.19.08-.08.17-.14.25-.21.22-.21-.55.33-.16.12.17-.09.34-.22.51-.33.09-.06.23-.09.31-.16.3-.27-.58.13-.18.07.2-.03.45-.12.64-.19.52-.19-.56-.03,0,0,.17,0,.43.04.59,0,.41-.08-.54-.2-.17-.03.1.05.25.05.36.08.07.02.16.06.24.07.58.12-.3-.23-.02-.01.16.12.38.23.56.32.55.31-.32-.35.14.11s.87.86,1.26,1.34c-.41-.5.1.15.23.34.18.26.35.52.51.79.44.71.85,1.45,1.24,2.2.86,1.63,1.62,3.31,2.38,4.99,4.88,10.86,9.68,21.69,15.69,32s13.19,20.55,20.97,29.95l-.39-3.03c-8.26,17.22-14.14,35.51-17.35,54.34l2.41-1.84c-18.66.14-37.32.27-55.99.41l2.41,1.84c-2.12-15.07-6.46-29.75-12.79-43.59-1.64-3.58-3.41-7.1-5.32-10.55v2.52c7.34-9.52,14-19.55,19.96-29.98,1.6-2.8-2.72-5.32-4.32-2.52Z"/>
  </g>
  <path class="cls-1" d="M71.38,199.73v21.18c0,3.22,5,3.22,5,0v-21.18c0-3.22-5-3.22-5,0h0Z"/>
  <line class="cls-3" x1="47.98" y1="49.98" x2="47.98" y2="114.57"/>
  <circle class="cls-3" cx="47.86" cy="127.11" r="12.55"/>
  <path class="cls-1" d="M66.91,54.53c3.03,0,6.05,0,9.08,0h21.81c8.79,0,17.59,0,26.38,0h22.8c3.67,0,7.38.15,11.05,0,.05,0,.11,0,.16,0,3.22,0,3.22-5,0-5-3.03,0-6.05,0-9.08,0h-21.81c-8.79,0-17.59,0-26.38,0h-22.8c-3.67,0-7.38-.15-11.05,0-.05,0-.11,0-.16,0-3.22,0-3.22,5,0,5h0Z"/>
  <path class="cls-1" d="M76.15,84.06c9.29,0,18.58,0,27.87,0,14.69,0,29.38,0,44.08,0,3.36,0,6.72,0,10.09,0s3.22-5,0-5c-9.29,0-18.58,0-27.87,0-14.69,0-29.38,0-44.08,0-3.36,0-6.72,0-10.09,0s-3.22,5,0,5h0Z"/>
  <path class="cls-1" d="M93.69,113.58c7.26,0,14.53,0,21.79,0,11.58,0,23.15,0,34.73,0,2.66,0,5.31,0,7.97,0,3.22,0,3.22-5,0-5-7.26,0-14.53,0-21.79,0-11.58,0-23.15,0-34.73,0-2.66,0-5.31,0-7.97,0-3.22,0-3.22,5,0,5h0Z"/>
  <path class="cls-1" d="M105.5,141.4c5.96,0,11.92,0,17.88,0,9.41,0,18.82,0,28.23,0,2.19,0,4.38,0,6.57,0,3.22,0,3.22-5,0-5-5.96,0-11.92,0-17.88,0-9.41,0-18.82,0-28.23,0-2.19,0-4.38,0-6.57,0-3.22,0-3.22,5,0,5h0Z"/>
</svg>