<svg width="123" height="39" viewBox="0 0 123 39" fill="none" xmlns="http://www.w3.org/2000/svg">
<rect width="39" height="39" rx="19.5" fill="#F7F2E9"/>
<g clip-path="url(#clip0_8407_261)">
<path d="M26.4203 29.4656H12.6632C11.6978 29.4656 10.916 28.641 10.916 27.6256V7.16728C10.916 6.15054 11.699 5.32727 12.6632 5.32727H29.392C29.5893 5.32727 30.2033 5.35454 30.7644 5.82461C31.5227 6.45829 31.5843 7.39453 31.593 7.54515V10.8161C30.4512 10.8161 29.3094 10.8174 28.1676 10.8187V7.48153C28.2576 6.94004 28.2909 6.73747 28.3525 6.56866C28.3809 6.49075 28.4339 6.36999 28.5066 6.24013C28.8544 5.62074 29.392 5.32857 29.392 5.32857C29.392 5.32857 28.8531 5.62074 28.5066 6.24013C28.4327 6.37129 28.3796 6.49075 28.3525 6.56866C28.2921 6.73747 28.2576 6.93874 28.1676 7.48153V27.6282C28.0751 27.9022 27.8519 28.4475 27.3377 28.9137C26.9962 29.2228 26.6521 29.3838 26.4203 29.4682V29.4656Z" fill="#F5F2E6"/>
<path d="M26.4203 29.1408H12.7778C12.403 29.1408 12.0442 29.0577 11.7482 28.7967C11.3944 28.485 11.2242 28.0448 11.2242 27.5657C11.2242 27.0865 11.2242 26.6139 11.2242 26.1386C11.2242 25.1686 11.2242 24.1973 11.2242 23.2273C11.2242 21.9664 11.2242 20.7043 11.2242 19.4434C11.2242 18.1825 11.2242 16.7139 11.2242 15.3478V8.65264C11.2242 8.17737 11.2242 7.70081 11.2242 7.22555C11.2242 6.75029 11.3956 6.3062 11.7482 5.99455C12.0442 5.73355 12.403 5.65044 12.7778 5.65044H18.1638C19.4437 5.65044 20.7224 5.65044 22.0023 5.65044C23.0429 5.65044 24.0836 5.65044 25.1243 5.65044H29.3006C29.3734 5.65044 29.4461 5.65044 29.5189 5.65434C29.6138 5.66083 29.6521 5.66602 29.7248 5.68031C30.1971 5.7738 30.6373 6.0361 30.9172 6.45553C31.0343 6.62953 31.1206 6.81262 31.181 7.00351C31.2057 7.08272 31.2267 7.16322 31.2439 7.24373C31.2513 7.2762 31.2575 7.30866 31.2637 7.34242C31.2674 7.3606 31.2834 7.47098 31.276 7.42033C31.2686 7.3645 31.2797 7.45409 31.2797 7.46448C31.2809 7.48136 31.2822 7.49824 31.2834 7.51513C31.2896 7.63199 31.2846 7.74886 31.2846 7.86573V10.816L31.5929 10.4913C30.4511 10.4913 29.3093 10.4926 28.1675 10.4939L28.4757 10.8186V7.93065C28.4757 7.77094 28.4646 7.60602 28.4844 7.4489C28.4992 7.33073 28.5238 7.21257 28.5448 7.0957C28.6126 6.72173 28.7026 6.45163 28.9406 6.14908C29.1243 5.91534 29.3031 5.74393 29.5473 5.61019C29.8987 5.41671 29.5879 4.85704 29.2365 5.04922C28.8 5.28945 28.419 5.71926 28.1897 6.17245C28.0762 6.3945 28.0072 6.62044 27.9616 6.86716C27.9332 7.02298 27.9061 7.17881 27.8814 7.33463C27.8432 7.57356 27.8605 7.82288 27.8605 8.0644V27.1099C27.8605 27.2956 27.8913 27.4995 27.8247 27.6709C27.8481 27.6111 27.8062 27.715 27.8062 27.715C27.7914 27.7488 27.7766 27.7825 27.7606 27.815C27.7248 27.8903 27.6866 27.963 27.6459 28.0344C27.5473 28.2059 27.4326 28.3617 27.2994 28.5058C27.0306 28.7967 26.7014 29.02 26.3389 29.1551C26.1823 29.2135 26.0775 29.3771 26.1231 29.555C26.165 29.7147 26.345 29.8407 26.5029 29.7823C27.2057 29.52 27.805 29.0213 28.1884 28.3448C28.3339 28.0877 28.4757 27.802 28.4757 27.4995V7.73847C28.4757 7.41124 28.5288 7.07233 28.6163 6.75679C28.7433 6.3023 29.1428 5.82964 29.5473 5.60759L29.2365 5.04663C28.7039 5.33879 28.2649 5.89586 28.0553 6.4802C27.9554 6.75808 27.9209 7.07103 27.8752 7.3619C27.8346 7.6281 27.8592 7.91507 27.8592 8.18517V10.816C27.8592 10.9913 28.001 11.1406 28.1675 11.1406C29.3093 11.1406 30.4511 11.1393 31.5929 11.138C31.7593 11.138 31.9011 10.99 31.9011 10.8134V8.76171C31.9011 8.26308 31.9418 7.75016 31.8703 7.25542C31.7273 6.26335 31.0614 5.4219 30.1478 5.12194C29.7039 4.97521 29.2452 5.00118 28.7852 5.00118H13.4745C12.768 5.00118 12.0602 4.94274 11.4523 5.418C10.9135 5.84003 10.6089 6.49059 10.6064 7.19569C10.6064 7.34112 10.6064 7.48656 10.6064 7.63199V9.82131C10.6064 10.9653 10.6064 12.1093 10.6064 13.2533V17.3125C10.6064 18.6695 10.6064 20.0264 10.6064 21.3847V24.8531C10.6064 25.6036 10.6064 26.3529 10.6064 27.1034C10.6064 27.2618 10.6064 27.4202 10.6064 27.5787C10.6064 28.1942 10.8309 28.7941 11.2661 29.2135C11.6755 29.607 12.1909 29.7901 12.7396 29.7901H26.419C26.8161 29.7901 26.8161 29.1408 26.419 29.1408H26.4203Z" fill="#221E1F"/>
<path d="M14.1096 31.2679H7.74463V33.9922H14.1096V31.2679Z" fill="#F5F2E6"/>
<path d="M14.8184 27.9852H6.87882C6.4927 27.9852 6.17969 28.3149 6.17969 28.7215V30.2096C6.17969 30.6162 6.4927 30.9459 6.87882 30.9459H14.8184C15.2045 30.9459 15.5175 30.6162 15.5175 30.2096V28.7215C15.5175 28.3149 15.2045 27.9852 14.8184 27.9852Z" fill="#F5F2E6"/>
<path d="M14.8185 30.6213H7.18842C7.07375 30.6213 6.94921 30.6342 6.83454 30.6213C6.38078 30.568 6.48805 29.9434 6.48805 29.611V28.902C6.48805 28.754 6.47449 28.602 6.56204 28.4774C6.69274 28.2917 6.89003 28.3112 7.08238 28.3112H13.3339C13.8234 28.3112 14.3154 28.2943 14.8037 28.3112C14.9517 28.3164 15.0799 28.3761 15.1564 28.515C15.2328 28.654 15.2094 28.8215 15.2094 28.9734C15.2094 29.3825 15.2254 29.7941 15.2094 30.2031C15.2008 30.4369 15.0454 30.6161 14.8185 30.6226C14.4227 30.6355 14.4215 31.2848 14.8185 31.2718C15.2414 31.2588 15.6138 30.9952 15.763 30.5745C15.8333 30.3758 15.8259 30.1681 15.8259 29.9603C15.8259 29.5487 15.8358 29.1344 15.8259 28.7228C15.8111 28.1047 15.3438 27.6645 14.7692 27.6619C14.5633 27.6619 14.3573 27.6619 14.1514 27.6619H8.55217C8.00223 27.6619 7.45229 27.6567 6.90236 27.6619C6.32282 27.6671 5.87523 28.1385 5.8703 28.7501C5.8666 29.1942 5.8703 29.6383 5.8703 30.0824C5.8703 30.3434 5.90236 30.5979 6.05155 30.8173C6.24761 31.1043 6.54724 31.264 6.88139 31.2731C7.03183 31.277 7.18349 31.2731 7.33515 31.2731H14.8173C15.2143 31.2731 15.2143 30.6239 14.8173 30.6239L14.8185 30.6213Z" fill="#221E1F"/>
<path d="M7.43652 30.9355V33.6858C7.43652 34.1039 8.05305 34.1039 8.05305 33.6858V30.9355C8.05305 30.5174 7.43652 30.5174 7.43652 30.9355Z" fill="#221E1F"/>
<path d="M7.77073 17.14C6.82005 18.8956 5.90143 20.2253 5.30957 21.033C5.75717 21.8861 6.22819 22.9288 6.63263 24.152C7.10735 25.5895 7.36752 26.901 7.51179 27.9853C9.81265 27.9671 12.1135 27.9502 14.4156 27.932C14.5549 27.0672 14.7485 26.1258 15.0186 25.1298C15.4551 23.517 15.9927 22.1198 16.5241 20.9524C15.7547 19.976 14.6141 18.3956 13.5266 16.2648C12.0235 13.3184 11.7362 11.5018 10.9261 11.4888C10.0445 11.4745 9.67948 13.6184 7.77196 17.1387L7.77073 17.14Z" fill="#F5F2E6"/>
<path d="M7.50444 16.9763C6.76831 18.3307 5.9471 19.6331 5.04328 20.8693C4.97669 20.9602 4.99519 21.1044 5.04328 21.1966C5.93477 22.9002 6.58459 24.7337 6.97176 26.6361C7.06794 27.1113 7.14809 27.5905 7.21221 28.071C7.2307 28.2086 7.3873 28.3099 7.50937 28.3099C9.81023 28.2917 12.1111 28.2748 14.4132 28.2566C14.5377 28.2566 14.6882 28.158 14.7104 28.0177C15.0975 25.6297 15.793 23.3015 16.788 21.116C16.8534 20.9732 16.8337 20.8421 16.7399 20.7226C15.8854 19.637 15.1123 18.4813 14.4231 17.2724C13.629 15.8791 12.9927 14.413 12.3676 12.9314C12.1912 12.5146 12.0199 12.0783 11.7621 11.7095C11.5575 11.416 11.2887 11.1693 10.9249 11.1628C10.2184 11.1511 9.83736 12.0238 9.57595 12.5847C9.29112 13.1937 9.03341 13.8157 8.75721 14.4286C8.3688 15.2922 7.95327 16.1427 7.50444 16.9737C7.30838 17.3373 7.83983 17.6646 8.03711 17.301C8.73132 16.0154 9.31825 14.6805 9.91258 13.3418C10.0864 12.9509 10.2591 12.5523 10.4859 12.1913C10.5057 12.1601 10.5254 12.1302 10.5464 12.0991C10.5575 12.0822 10.5698 12.0653 10.5821 12.0484C10.534 12.116 10.5624 12.0744 10.576 12.0588C10.6216 12.0056 10.666 11.9536 10.7153 11.9043C10.7252 11.8939 10.7362 11.8861 10.7461 11.877C10.7732 11.8498 10.6783 11.9199 10.7264 11.8926C10.7473 11.8809 10.7683 11.864 10.7893 11.8498C10.8004 11.842 10.8176 11.8381 10.8275 11.829C10.8645 11.7939 10.756 11.8459 10.8053 11.8381C10.83 11.8342 10.8608 11.8225 10.8842 11.8134C10.9483 11.7887 10.8152 11.8095 10.8842 11.8134C10.9052 11.8134 10.9372 11.8186 10.957 11.8134C11.0075 11.803 10.8904 11.7874 10.936 11.8095C10.9483 11.816 10.9668 11.816 10.9804 11.8199C10.989 11.8225 11.0001 11.8277 11.01 11.829C11.0815 11.8446 10.973 11.7991 11.0075 11.8277C11.0272 11.8433 11.0544 11.8575 11.0766 11.8692C11.1444 11.9095 11.0371 11.8238 11.0938 11.8835C11.1506 11.9433 11.2011 11.9952 11.2492 12.0575C11.1986 11.9926 11.2615 12.077 11.2776 12.1017C11.2998 12.1354 11.3207 12.1692 11.3404 12.2043C11.3947 12.2964 11.4453 12.3925 11.4933 12.4899C11.5994 12.7016 11.6931 12.9197 11.7868 13.1379C12.3885 14.5481 12.9804 15.9544 13.7215 17.2932C14.4625 18.632 15.3478 19.9617 16.3072 21.1823L16.2591 20.7888C15.2406 23.0249 14.5155 25.3999 14.1197 27.845L14.4169 27.6061C12.116 27.6243 9.81517 27.6411 7.51307 27.6593L7.81023 27.8982C7.54883 25.9414 7.01369 24.0351 6.23317 22.238C6.03095 21.7731 5.8127 21.316 5.57719 20.868V21.1953C6.48224 19.9591 7.30345 18.6566 8.03835 17.3023C8.23563 16.9387 7.70296 16.6115 7.50567 16.975L7.50444 16.9763Z" fill="#221E1F"/>
<path d="M13.8013 30.9355V33.6858C13.8013 34.1039 14.4178 34.1039 14.4178 33.6858V30.9355C14.4178 30.5174 13.8013 30.5174 13.8013 30.9355Z" fill="#221E1F"/>
<path d="M10.916 11.4901V19.8772" stroke="#221E1F" stroke-width="0.5" stroke-miterlimit="10"/>
<path d="M10.9015 23.1352C11.7561 23.1352 12.4489 22.4056 12.4489 21.5056C12.4489 20.6055 11.7561 19.8759 10.9015 19.8759C10.0468 19.8759 9.354 20.6055 9.354 21.5056C9.354 22.4056 10.0468 23.1352 10.9015 23.1352Z" stroke="#221E1F" stroke-width="0.5" stroke-miterlimit="10"/>
<path d="M13.2504 12.0809C13.624 12.0809 13.9964 12.0809 14.37 12.0809H17.0593C18.1431 12.0809 19.2282 12.0809 20.3121 12.0809H23.1234C23.5759 12.0809 24.0334 12.1004 24.4859 12.0809C24.4921 12.0809 24.4995 12.0809 24.5057 12.0809C24.9027 12.0809 24.9027 11.4316 24.5057 11.4316C24.132 11.4316 23.7597 11.4316 23.3861 11.4316H20.6968C19.6129 11.4316 18.5279 11.4316 17.444 11.4316H14.6327C14.1801 11.4316 13.7227 11.4122 13.2701 11.4316C13.264 11.4316 13.2566 11.4316 13.2504 11.4316C12.8534 11.4316 12.8534 12.0809 13.2504 12.0809Z" fill="#221E1F"/>
<path d="M14.3897 15.9154C15.5352 15.9154 16.6807 15.9154 17.8262 15.9154C19.6376 15.9154 21.4489 15.9154 23.2615 15.9154C23.6758 15.9154 24.0901 15.9154 24.5056 15.9154C24.9212 15.9154 24.9027 15.2662 24.5056 15.2662C23.3601 15.2662 22.2146 15.2662 21.0691 15.2662C19.2578 15.2662 17.4464 15.2662 15.6339 15.2662C15.2196 15.2662 14.8053 15.2662 14.3897 15.2662C13.9742 15.2662 13.9927 15.9154 14.3897 15.9154Z" fill="#221E1F"/>
<path d="M16.5522 19.7487C17.4474 19.7487 18.3438 19.7487 19.239 19.7487C20.6668 19.7487 22.0935 19.7487 23.5213 19.7487C23.8493 19.7487 24.1761 19.7487 24.5041 19.7487C24.9011 19.7487 24.9011 19.0994 24.5041 19.0994C23.6089 19.0994 22.7125 19.0994 21.8173 19.0994C20.3894 19.0994 18.9628 19.0994 17.5349 19.0994C17.2069 19.0994 16.8802 19.0994 16.5522 19.0994C16.1551 19.0994 16.1551 19.7487 16.5522 19.7487Z" fill="#221E1F"/>
<path d="M18.0087 23.3612C18.7436 23.3612 19.4785 23.3612 20.2134 23.3612C21.3737 23.3612 22.534 23.3612 23.6943 23.3612C23.9643 23.3612 24.2344 23.3612 24.5044 23.3612C24.9014 23.3612 24.9014 22.7119 24.5044 22.7119C23.7695 22.7119 23.0346 22.7119 22.2997 22.7119C21.1394 22.7119 19.9791 22.7119 18.8188 22.7119C18.5488 22.7119 18.2788 22.7119 18.0087 22.7119C17.6117 22.7119 17.6117 23.3612 18.0087 23.3612Z" fill="#221E1F"/>
</g>
<path d="M57.16 30.884C54.92 30.884 52.9787 30.404 51.336 29.444C49.7147 28.4627 48.4667 27.108 47.592 25.38C46.7173 23.6307 46.28 21.6147 46.28 19.332C46.28 17.0493 46.7173 15.0333 47.592 13.284C48.4667 11.5347 49.7147 10.1693 51.336 9.188C52.9573 8.20667 54.8987 7.716 57.16 7.716C59.8907 7.716 62.12 8.388 63.848 9.732C65.576 11.076 66.6533 12.9747 67.08 15.428H62.344C62.0667 14.2333 61.4907 13.3053 60.616 12.644C59.7413 11.9613 58.5787 11.62 57.128 11.62C55.784 11.62 54.6213 11.94 53.64 12.58C52.68 13.1987 51.944 14.084 51.432 15.236C50.92 16.388 50.664 17.7533 50.664 19.332C50.664 20.9107 50.92 22.276 51.432 23.428C51.944 24.5587 52.68 25.4333 53.64 26.052C54.6213 26.6707 55.784 26.98 57.128 26.98C58.5787 26.98 59.7413 26.6707 60.616 26.052C61.4907 25.4333 62.0667 24.5587 62.344 23.428H67.08C66.6747 25.7533 65.5973 27.5773 63.848 28.9C62.12 30.2227 59.8907 30.884 57.16 30.884ZM74.1347 30.5L68.5987 8.1H73.2067L77.1427 26.692H77.2067L81.7508 8.1H86.7108L91.2868 26.692H91.3507L95.1908 8.1H99.7988L94.2308 30.5H88.4708L84.2148 13.476H84.1508L79.8628 30.5H74.1347ZM111.616 30.884C109.376 30.884 107.435 30.404 105.792 29.444C104.171 28.4627 102.923 27.108 102.048 25.38C101.174 23.6307 100.736 21.6147 100.736 19.332C100.736 17.0493 101.174 15.0333 102.048 13.284C102.923 11.5347 104.171 10.1693 105.792 9.188C107.414 8.20667 109.355 7.716 111.616 7.716C114.347 7.716 116.576 8.388 118.304 9.732C120.032 11.076 121.11 12.9747 121.536 15.428H116.8C116.523 14.2333 115.947 13.3053 115.072 12.644C114.198 11.9613 113.035 11.62 111.584 11.62C110.24 11.62 109.078 11.94 108.096 12.58C107.136 13.1987 106.4 14.084 105.888 15.236C105.376 16.388 105.12 17.7533 105.12 19.332C105.12 20.9107 105.376 22.276 105.888 23.428C106.4 24.5587 107.136 25.4333 108.096 26.052C109.078 26.6707 110.24 26.98 111.584 26.98C113.035 26.98 114.198 26.6707 115.072 26.052C115.947 25.4333 116.523 24.5587 116.8 23.428H121.536C121.131 25.7533 120.054 27.5773 118.304 28.9C116.576 30.2227 114.347 30.884 111.616 30.884Z" fill="#F7F2E9"/>
<defs>
<clipPath id="clip0_8407_261">
<rect width="29" height="29" fill="white" transform="translate(5 5)"/>
</clipPath>
</defs>
</svg>
